<?xml-stylesheet type="text/css" href="../css/main.css"?>
<svg width="13px" height="13px" viewBox="0 0 13 13" version="1.1" xmlns="http://www.w3.org/2000/svg" xmlns:xlink="http://www.w3.org/1999/xlink">
    <!-- Generator: Sketch 40 (33762) - http://www.bohemiancoding.com/sketch -->
    <title>Shape</title>
    <desc>Created with Sketch.</desc>
    <defs></defs>
    <g id="Page-1" stroke="none" stroke-width="1" fill="none" fill-rule="evenodd">
        <g id="Paradise-Online-Store" transform="translate(-460.000000, -1572.000000)" fill="#979797">
            <g id="featured-products" transform="translate(119.000000, 873.000000)">
                <g id="featured-block-04" transform="translate(268.000000, 424.000000)">
                    <g id="Group-Copy" transform="translate(62.000000, 269.000000)">
                        <path class="icon-bucket-path" d="M21.0981696,16.0743649 C21.4163795,16.0743649 21.6924731,16.1960336 21.9264507,16.4393701 C22.1604282,16.6827071 22.2774172,16.9634801 22.2774172,17.2816899 C22.2774172,17.5998993 22.1604282,17.8759929 21.9264507,18.1099705 C21.6924731,18.3439485 21.4163795,18.460937 21.0981696,18.460937 C20.7799603,18.460937 20.4991868,18.3439485 20.2558503,18.1099705 C20.0125133,17.8759929 19.8908451,17.5998993 19.8908451,17.2816899 C19.8908451,16.9634801 20.0125133,16.6827071 20.2558503,16.4393701 C20.4991868,16.1960336 20.7799603,16.0743649 21.0981696,16.0743649 L21.0981696,16.0743649 Z M11.4957273,6.5 L13.4611393,6.5 L14.0226856,7.67924709 L22.8951179,7.67924709 C23.0635821,7.67924709 23.2039683,7.74008122 23.3162781,7.86174996 C23.4285868,7.98341821 23.4847417,8.12848417 23.4847417,8.29694832 C23.4847417,8.39053914 23.4566643,8.48413043 23.4005099,8.57772125 L21.2666338,12.4523913 C21.0420152,12.864192 20.6957284,13.070092 20.2277729,13.070092 L15.7634795,13.070092 L15.2300106,14.052798 L15.2019332,14.1370304 C15.2019332,14.2306212 15.2487286,14.2774166 15.3423194,14.2774166 L22.2774172,14.2774166 L22.2774172,15.4847416 L15.0896239,15.4847416 C14.7714141,15.4847416 14.4953204,15.3630733 14.2613429,15.1197363 C14.0273653,14.8763994 13.9103763,14.5956264 13.9103763,14.2774166 C13.9103763,14.0902349 13.9571722,13.9030523 14.0507631,13.7158707 L14.8650054,12.2277728 L12.7030518,7.67924709 L11.4957273,7.67924709 L11.4957273,6.5 Z M15.0896239,16.0743649 C15.4078333,16.0743649 15.6886067,16.1960336 15.9319432,16.4393701 C16.1752802,16.6827071 16.2969484,16.9634801 16.2969484,17.2816899 C16.2969484,17.5998993 16.1752802,17.8759929 15.9319432,18.1099705 C15.6886067,18.3439485 15.4078333,18.460937 15.0896239,18.460937 C14.7714141,18.460937 14.4953204,18.3439485 14.2613429,18.1099705 C14.0273653,17.8759929 13.9103763,17.5998993 13.9103763,17.2816899 C13.9103763,16.9634801 14.0273653,16.6827071 14.2613429,16.4393701 C14.4953204,16.1960336 14.7714141,16.0743649 15.0896239,16.0743649 L15.0896239,16.0743649 Z" id="Shape"></path>
                    </g>
                </g>
            </g>
        </g>
    </g>
</svg>
